<?xml version="1.0" standalone="no"?>
<!DOCTYPE svg PUBLIC "-//W3C//DTD SVG 20010904//EN"
 "http://www.w3.org/TR/2001/REC-SVG-20010904/DTD/svg10.dtd">
<svg version="1.0" xmlns="http://www.w3.org/2000/svg"
 width="180.000000pt" height="180.000000pt" viewBox="0 0 180.000000 180.000000"
 preserveAspectRatio="xMidYMid meet">
<metadata>
Created by potrace 1.11, written by Peter Selinger 2001-2013
</metadata>
<g transform="translate(0.000000,180.000000) scale(0.100000,-0.100000)"
fill="#000000" stroke="none">
<path d="M214 1789 c-86 -25 -181 -122 -204 -210 -7 -25 -10 -266 -8 -706 3
-667 3 -668 25 -709 34 -63 71 -102 127 -134 l51 -30 700 0 700 0 51 30 c56
32 94 72 124 131 19 37 20 64 20 736 l0 698 -30 51 c-32 56 -71 93 -134 127
-41 22 -41 22 -716 24 -389 1 -688 -2 -706 -8z m475 -550 c85 -36 161 -136
161 -211 0 -15 -10 -18 -70 -18 l-69 0 -20 45 c-16 36 -29 50 -63 65 -79 36
-152 20 -205 -44 -41 -50 -55 -103 -54 -204 0 -73 4 -92 28 -140 37 -75 68
-95 146 -100 81 -4 121 19 150 89 l21 49 68 0 c64 0 68 -1 68 -23 0 -46 -32
-117 -71 -157 -62 -63 -116 -83 -229 -84 -85 -1 -101 2 -152 27 -31 15 -71 44
-89 64 -121 139 -128 408 -13 558 79 103 259 142 393 84z m781 -16 c116 -72
114 -262 -3 -333 l-29 -18 31 -16 c45 -24 54 -49 62 -169 5 -77 12 -114 23
-126 31 -34 20 -41 -68 -41 -100 0 -96 -4 -103 130 -2 52 -6 104 -8 116 -7 32
-48 44 -155 44 l-100 0 0 -145 0 -145 -75 0 -75 0 0 366 0 365 233 -3 c219 -3
234 -4 267 -25z"/>
<path d="M1120 1030 l0 -90 116 0 c63 0 124 4 134 10 24 13 42 66 34 107 -10
54 -33 63 -166 63 l-118 0 0 -90z"/>
</g>
</svg>
